<mxfile host="Electron" modified="2024-04-09T08:11:40.921Z" agent="Mozilla/5.0 (Windows NT 10.0; Win64; x64) AppleWebKit/537.36 (KHTML, like Gecko) draw.io/24.1.0 Chrome/120.0.6099.109 Electron/28.1.0 Safari/537.36" etag="fcvkmCI_gV0adgPNXRwo" version="24.1.0" type="device">
  <diagram name="第 1 页" id="bIt8fHNzmymoWnp6kEOg">
    <mxGraphModel dx="2074" dy="1196" grid="1" gridSize="10" guides="1" tooltips="1" connect="1" arrows="1" fold="1" page="1" pageScale="1" pageWidth="2336" pageHeight="1654" math="0" shadow="0">
      <root>
        <mxCell id="0" />
        <mxCell id="1" parent="0" />
        <mxCell id="75t309C0qriGHZeRkGCD-8" style="edgeStyle=orthogonalEdgeStyle;rounded=0;orthogonalLoop=1;jettySize=auto;html=1;exitX=0.5;exitY=1;exitDx=0;exitDy=0;exitPerimeter=0;entryX=0.5;entryY=0;entryDx=0;entryDy=0;" edge="1" parent="1" source="75t309C0qriGHZeRkGCD-1" target="75t309C0qriGHZeRkGCD-2">
          <mxGeometry relative="1" as="geometry" />
        </mxCell>
        <mxCell id="75t309C0qriGHZeRkGCD-1" value="开始" style="strokeWidth=2;html=1;shape=mxgraph.flowchart.start_2;whiteSpace=wrap;fontSize=18;" vertex="1" parent="1">
          <mxGeometry x="750" y="40" width="100" height="100" as="geometry" />
        </mxCell>
        <mxCell id="75t309C0qriGHZeRkGCD-9" style="edgeStyle=orthogonalEdgeStyle;rounded=0;orthogonalLoop=1;jettySize=auto;html=1;exitX=0.5;exitY=1;exitDx=0;exitDy=0;entryX=0.5;entryY=0;entryDx=0;entryDy=0;" edge="1" parent="1" source="75t309C0qriGHZeRkGCD-2" target="75t309C0qriGHZeRkGCD-3">
          <mxGeometry relative="1" as="geometry" />
        </mxCell>
        <mxCell id="75t309C0qriGHZeRkGCD-2" value="avcodec_find_encoder" style="rounded=0;whiteSpace=wrap;html=1;fontSize=16;" vertex="1" parent="1">
          <mxGeometry x="705" y="190" width="190" height="60" as="geometry" />
        </mxCell>
        <mxCell id="75t309C0qriGHZeRkGCD-10" style="edgeStyle=orthogonalEdgeStyle;rounded=0;orthogonalLoop=1;jettySize=auto;html=1;exitX=0.5;exitY=1;exitDx=0;exitDy=0;entryX=0.5;entryY=0;entryDx=0;entryDy=0;" edge="1" parent="1" source="75t309C0qriGHZeRkGCD-3" target="75t309C0qriGHZeRkGCD-5">
          <mxGeometry relative="1" as="geometry" />
        </mxCell>
        <mxCell id="75t309C0qriGHZeRkGCD-3" value="avformat_new_stream" style="rounded=0;whiteSpace=wrap;html=1;fontSize=16;" vertex="1" parent="1">
          <mxGeometry x="705" y="310" width="190" height="60" as="geometry" />
        </mxCell>
        <mxCell id="75t309C0qriGHZeRkGCD-11" style="edgeStyle=orthogonalEdgeStyle;rounded=0;orthogonalLoop=1;jettySize=auto;html=1;exitX=0.5;exitY=1;exitDx=0;exitDy=0;entryX=0.5;entryY=0;entryDx=0;entryDy=0;" edge="1" parent="1" source="75t309C0qriGHZeRkGCD-5" target="75t309C0qriGHZeRkGCD-6">
          <mxGeometry relative="1" as="geometry" />
        </mxCell>
        <mxCell id="75t309C0qriGHZeRkGCD-5" value="avcodec_alloc_context3" style="rounded=0;whiteSpace=wrap;html=1;fontSize=16;" vertex="1" parent="1">
          <mxGeometry x="705" y="410" width="190" height="60" as="geometry" />
        </mxCell>
        <mxCell id="75t309C0qriGHZeRkGCD-15" style="edgeStyle=orthogonalEdgeStyle;rounded=0;orthogonalLoop=1;jettySize=auto;html=1;exitX=0.5;exitY=1;exitDx=0;exitDy=0;entryX=0.5;entryY=0;entryDx=0;entryDy=0;" edge="1" parent="1" source="75t309C0qriGHZeRkGCD-6" target="75t309C0qriGHZeRkGCD-14">
          <mxGeometry relative="1" as="geometry" />
        </mxCell>
        <mxCell id="75t309C0qriGHZeRkGCD-6" value="init_codec_parm" style="rounded=0;whiteSpace=wrap;html=1;fontSize=16;" vertex="1" parent="1">
          <mxGeometry x="705" y="510" width="190" height="60" as="geometry" />
        </mxCell>
        <mxCell id="75t309C0qriGHZeRkGCD-7" value="&lt;font style=&quot;font-size: 16px;&quot;&gt;end&lt;/font&gt;" style="strokeWidth=2;html=1;shape=mxgraph.flowchart.terminator;whiteSpace=wrap;" vertex="1" parent="1">
          <mxGeometry x="735" y="740" width="130" height="60" as="geometry" />
        </mxCell>
        <mxCell id="75t309C0qriGHZeRkGCD-13" value="初始化编码器参数" style="text;html=1;align=center;verticalAlign=middle;resizable=0;points=[];autosize=1;strokeColor=none;fillColor=none;fontSize=18;" vertex="1" parent="1">
          <mxGeometry x="920" y="520" width="170" height="40" as="geometry" />
        </mxCell>
        <mxCell id="75t309C0qriGHZeRkGCD-14" value="codec_ctx-&amp;gt;flags |= AV_CODEC_FLAG_GLOBAL_HEADER;" style="rounded=0;whiteSpace=wrap;html=1;fontSize=16;" vertex="1" parent="1">
          <mxGeometry x="645" y="620" width="310" height="60" as="geometry" />
        </mxCell>
        <mxCell id="75t309C0qriGHZeRkGCD-16" style="edgeStyle=orthogonalEdgeStyle;rounded=0;orthogonalLoop=1;jettySize=auto;html=1;exitX=0.5;exitY=1;exitDx=0;exitDy=0;entryX=0.5;entryY=0;entryDx=0;entryDy=0;entryPerimeter=0;" edge="1" parent="1" source="75t309C0qriGHZeRkGCD-14" target="75t309C0qriGHZeRkGCD-7">
          <mxGeometry relative="1" as="geometry" />
        </mxCell>
      </root>
    </mxGraphModel>
  </diagram>
</mxfile>
